<svg width="1920" height="1034" xmlns="http://www.w3.org/2000/svg"><g><path d="M-113,-99L-120,250L-56,77Z" fill="#fefafe" stroke="#fefafe"/><path d="M-113,-99L-56,77L44,-33Z" fill="#fdf9fc" stroke="#fdf9fc"/><path d="M-113,-99L44,-33L273,-123Z" fill="#f7f4f9" stroke="#f7f4f9"/><path d="M44,-33L-56,77L72,103Z" fill="#f9f5fb" stroke="#f9f5fb"/><path d="M44,-33L72,103L220,97Z" fill="#f3f1f8" stroke="#f3f1f8"/><path d="M44,-33L220,97L273,-123Z" fill="#f0eff6" stroke="#f0eff6"/><path d="M273,-123L220,97L357,78Z" fill="#e9e9f4" stroke="#e9e9f4"/><path d="M273,-123L357,78L385,-70Z" fill="#e7e8f2" stroke="#e7e8f2"/><path d="M273,-123L385,-70L527,-131Z" fill="#e3e6f1" stroke="#e3e6f1"/><path d="M385,-70L357,78L567,109Z" fill="#dfe4f1" stroke="#dfe4f1"/><path d="M385,-70L567,109L527,-131Z" fill="#dce3f0" stroke="#dce3f0"/><path d="M527,-131L567,109L625,53Z" fill="#d7e0ee" stroke="#d7e0ee"/><path d="M527,-131L625,53L639,-72Z" fill="#d6e0ee" stroke="#d6e0ee"/><path d="M527,-131L639,-72L810,-115Z" fill="#d1deed" stroke="#d1deed"/><path d="M527,-131L810,-115L1605,-108Z" fill="#b1d3e6" stroke="#b1d3e6"/><path d="M639,-72L625,53L838,97Z" fill="#ccdcec" stroke="#ccdcec"/><path d="M639,-72L838,97L810,-115Z" fill="#c7daeb" stroke="#c7daeb"/><path d="M810,-115L838,97L921,-50Z" fill="#bdd7e9" stroke="#bdd7e9"/><path d="M810,-115L921,-50L1086,-55Z" fill="#b5d5e8" stroke="#b5d5e8"/><path d="M810,-115L1086,-55L1605,-108Z" fill="#9bccd6" stroke="#9bccd6"/><path d="M921,-50L838,97L1003,106Z" fill="#b6d4e8" stroke="#b6d4e8"/><path d="M921,-50L1003,106L1086,-55Z" fill="#aed3e4" stroke="#aed3e4"/><path d="M1086,-55L1003,106L1179,89Z" fill="#a3cedc" stroke="#a3cedc"/><path d="M1086,-55L1179,89L1234,-32Z" fill="#9bccd6" stroke="#9bccd6"/><path d="M1086,-55L1234,-32L1442,-50Z" fill="#91c9ce" stroke="#91c9ce"/><path d="M1086,-55L1442,-50L1605,-108Z" fill="#8ac2c2" stroke="#8ac2c2"/><path d="M1234,-32L1179,89L1319,76Z" fill="#91c8cf" stroke="#91c8cf"/><path d="M1234,-32L1319,76L1442,-50Z" fill="#8cc5c7" stroke="#8cc5c7"/><path d="M1442,-50L1319,76L1459,31Z" fill="#88c0c0" stroke="#88c0c0"/><path d="M1442,-50L1459,31L1590,40Z" fill="#85bcb7" stroke="#85bcb7"/><path d="M1442,-50L1590,40L1605,-108Z" fill="#83b9b2" stroke="#83b9b2"/><path d="M1605,-108L1590,40L1720,-78Z" fill="#80b4a8" stroke="#80b4a8"/><path d="M1605,-108L1720,-78L2080,-59Z" fill="#80aa98" stroke="#80aa98"/><path d="M1720,-78L1590,40L1732,78Z" fill="#7fb1a4" stroke="#7fb1a4"/><path d="M1720,-78L1732,78L1865,-24Z" fill="#80ac9b" stroke="#80ac9b"/><path d="M1720,-78L1865,-24L2080,-59Z" fill="#80a68f" stroke="#80a68f"/><path d="M1865,-24L1732,78L1850,113Z" fill="#7fa997" stroke="#7fa997"/><path d="M1865,-24L1850,113L2010,48Z" fill="#7fa38d" stroke="#7fa38d"/><path d="M1865,-24L2010,48L2080,-59Z" fill="#80a086" stroke="#80a086"/><path d="M2080,-59L2010,48L2002,183Z" fill="#7f9d81" stroke="#7f9d81"/><path d="M2080,-59L2002,183L2072,353Z" fill="#7d9980" stroke="#7d9980"/><path d="M2080,-59L2072,353L2063,1110Z" fill="#48847d" stroke="#48847d"/><path d="M-56,77L-120,250L72,103Z" fill="#faf6fc" stroke="#faf6fc"/><path d="M72,103L-120,250L124,187Z" fill="#f5f3fb" stroke="#f5f3fb"/><path d="M72,103L124,187L220,97Z" fill="#f0eff8" stroke="#f0eff8"/><path d="M220,97L124,187L273,235Z" fill="#ebebf6" stroke="#ebebf6"/><path d="M220,97L273,235L357,78Z" fill="#e7e7f4" stroke="#e7e7f4"/><path d="M357,78L273,235L395,201Z" fill="#e3e5f2" stroke="#e3e5f2"/><path d="M357,78L395,201L567,109Z" fill="#dde2f1" stroke="#dde2f1"/><path d="M567,109L395,201L487,265Z" fill="#d7dff0" stroke="#d7dff0"/><path d="M567,109L487,265L728,215Z" fill="#cfdbee" stroke="#cfdbee"/><path d="M567,109L728,215L625,53Z" fill="#d0dced" stroke="#d0dced"/><path d="M625,53L728,215L838,97Z" fill="#c7d9ec" stroke="#c7d9ec"/><path d="M838,97L728,215L843,220Z" fill="#bfd6ea" stroke="#bfd6ea"/><path d="M838,97L843,220L962,243Z" fill="#b6d3e9" stroke="#b6d3e9"/><path d="M838,97L962,243L1003,106Z" fill="#b3d3e8" stroke="#b3d3e8"/><path d="M1003,106L962,243L1079,180Z" fill="#a9cfe3" stroke="#a9cfe3"/><path d="M1003,106L1079,180L1179,89Z" fill="#a2cddd" stroke="#a2cddd"/><path d="M1179,89L1079,180L1245,212Z" fill="#97c9d6" stroke="#97c9d6"/><path d="M1179,89L1245,212L1319,76Z" fill="#8fc7cf" stroke="#8fc7cf"/><path d="M1319,76L1245,212L1415,175Z" fill="#89c3c8" stroke="#89c3c8"/><path d="M1319,76L1415,175L1459,31Z" fill="#87c0c0" stroke="#87c0c0"/><path d="M1459,31L1415,175L1590,40Z" fill="#83bbb7" stroke="#83bbb7"/><path d="M1590,40L1415,175L1573,240Z" fill="#80b7b4" stroke="#80b7b4"/><path d="M1590,40L1573,240L1689,245Z" fill="#7cb2ab" stroke="#7cb2ab"/><path d="M1590,40L1689,245L1732,78Z" fill="#7db0a5" stroke="#7db0a5"/><path d="M1732,78L1689,245L1852,229Z" fill="#7ba99c" stroke="#7ba99c"/><path d="M1732,78L1852,229L1850,113Z" fill="#7da797" stroke="#7da797"/><path d="M1850,113L1852,229L2002,183Z" fill="#7ca28e" stroke="#7ca28e"/><path d="M1850,113L2002,183L2010,48Z" fill="#7da089" stroke="#7da089"/><path d="M-120,250L-116,787L-115,707Z" fill="#addcee" stroke="#addcee"/><path d="M-120,250L-115,707L-110,429Z" fill="#c9e6fc" stroke="#c9e6fc"/><path d="M-120,250L-110,429L73,387Z" fill="#dfeafd" stroke="#dfeafd"/><path d="M-120,250L73,387L124,187Z" fill="#e7ecfb" stroke="#e7ecfb"/><path d="M124,187L73,387L239,347Z" fill="#dbe4f7" stroke="#dbe4f7"/><path d="M124,187L239,347L273,235Z" fill="#dfe4f6" stroke="#dfe4f6"/><path d="M273,235L239,347L345,358Z" fill="#d2ddf4" stroke="#d2ddf4"/><path d="M273,235L345,358L395,201Z" fill="#d6def2" stroke="#d6def2"/><path d="M395,201L345,358L487,265Z" fill="#cfdbf1" stroke="#cfdbf1"/><path d="M487,265L345,358L527,403Z" fill="#c3d5f0" stroke="#c3d5f0"/><path d="M487,265L527,403L731,346Z" fill="#bbd2ee" stroke="#bbd2ee"/><path d="M487,265L731,346L728,215Z" fill="#bfd4ed" stroke="#bfd4ed"/><path d="M728,215L731,346L843,220Z" fill="#b6d1eb" stroke="#b6d1eb"/><path d="M843,220L731,346L816,422Z" fill="#a9cbea" stroke="#a9cbea"/><path d="M843,220L816,422L972,360Z" fill="#a0c8e9" stroke="#a0c8e9"/><path d="M843,220L972,360L962,243Z" fill="#a4cbe8" stroke="#a4cbe8"/><path d="M962,243L972,360L1079,180Z" fill="#9ecae4" stroke="#9ecae4"/><path d="M1079,180L972,360L1124,419Z" fill="#8fc3df" stroke="#8fc3df"/><path d="M1079,180L1124,419L1245,212Z" fill="#8cc3d7" stroke="#8cc3d7"/><path d="M1245,212L1124,419L1322,331Z" fill="#7bbcd0" stroke="#7bbcd0"/><path d="M1245,212L1322,331L1415,175Z" fill="#7fbec8" stroke="#7fbec8"/><path d="M1415,175L1322,331L1424,325Z" fill="#77b7c2" stroke="#77b7c2"/><path d="M1415,175L1424,325L1573,240Z" fill="#77b5b9" stroke="#77b5b9"/><path d="M1573,240L1424,325L1537,343Z" fill="#6dafb5" stroke="#6dafb5"/><path d="M1573,240L1537,343L1681,346Z" fill="#69a9ad" stroke="#69a9ad"/><path d="M1573,240L1681,346L1689,245Z" fill="#6da9a7" stroke="#6da9a7"/><path d="M1689,245L1681,346L1852,229Z" fill="#6ea49e" stroke="#6ea49e"/><path d="M1852,229L1681,346L1872,427Z" fill="#659c98" stroke="#659c98"/><path d="M1852,229L1872,427L2072,353Z" fill="#64958b" stroke="#64958b"/><path d="M1852,229L2072,353L2002,183Z" fill="#709887" stroke="#709887"/><path d="M-110,429L-115,707L-49,550Z" fill="#b2ddf1" stroke="#b2ddf1"/><path d="M-110,429L-49,550L51,468Z" fill="#c2e0f9" stroke="#c2e0f9"/><path d="M-110,429L51,468L73,387Z" fill="#cce2f9" stroke="#cce2f9"/><path d="M73,387L51,468L192,505Z" fill="#c0dcf6" stroke="#c0dcf6"/><path d="M73,387L192,505L239,347Z" fill="#c5dbf5" stroke="#c5dbf5"/><path d="M239,347L192,505L345,358Z" fill="#c2d8f3" stroke="#c2d8f3"/><path d="M345,358L192,505L356,555Z" fill="#b1d1f0" stroke="#b1d1f0"/><path d="M345,358L356,555L527,403Z" fill="#b1d0ef" stroke="#b1d0ef"/><path d="M527,403L356,555L541,565Z" fill="#9ec9ec" stroke="#9ec9ec"/><path d="M527,403L541,565L631,477Z" fill="#9dc8ec" stroke="#9dc8ec"/><path d="M527,403L631,477L731,346Z" fill="#a9cbec" stroke="#a9cbec"/><path d="M731,346L631,477L816,422Z" fill="#9ec8ea" stroke="#9ec8ea"/><path d="M816,422L631,477L869,496Z" fill="#8fc3e8" stroke="#8fc3e8"/><path d="M816,422L869,496L972,360Z" fill="#8dc2e7" stroke="#8dc2e7"/><path d="M972,360L869,496L972,528Z" fill="#7fbee5" stroke="#7fbee5"/><path d="M972,360L972,528L1088,505Z" fill="#77bbe0" stroke="#77bbe0"/><path d="M972,360L1088,505L1124,419Z" fill="#79bbdd" stroke="#79bbdd"/><path d="M1124,419L1088,505L1291,500Z" fill="#62b4d3" stroke="#62b4d3"/><path d="M1124,419L1291,500L1322,331Z" fill="#66b5ce" stroke="#66b5ce"/><path d="M1322,331L1291,500L1424,325Z" fill="#65b2c5" stroke="#65b2c5"/><path d="M1424,325L1291,500L1402,578Z" fill="#52abc0" stroke="#52abc0"/><path d="M1424,325L1402,578L1537,343Z" fill="#5aaab9" stroke="#5aaab9"/><path d="M1537,343L1402,578L1596,511Z" fill="#4aa3b2" stroke="#4aa3b2"/><path d="M1537,343L1596,511L1681,346Z" fill="#58a2aa" stroke="#58a2aa"/><path d="M1681,346L1596,511L1762,501Z" fill="#4c9ba2" stroke="#4c9ba2"/><path d="M1681,346L1762,501L1872,427Z" fill="#529899" stroke="#529899"/><path d="M1872,427L1762,501L1893,473Z" fill="#499191" stroke="#499191"/><path d="M1872,427L1893,473L2072,353Z" fill="#538e88" stroke="#538e88"/><path d="M2072,353L1893,473L2041,508Z" fill="#4d8982" stroke="#4d8982"/><path d="M2072,353L2041,508L2055,1017Z" fill="#227867" stroke="#227867"/><path d="M2072,353L2055,1017L2063,1110Z" fill="#12613d" stroke="#12613d"/><path d="M-49,550L-115,707L113,675Z" fill="#99d3e0" stroke="#99d3e0"/><path d="M-49,550L113,675L51,468Z" fill="#aad6ed" stroke="#aad6ed"/><path d="M51,468L113,675L192,505Z" fill="#a9d4ee" stroke="#a9d4ee"/><path d="M192,505L113,675L207,653Z" fill="#97cce1" stroke="#97cce1"/><path d="M192,505L207,653L356,555Z" fill="#9ccce7" stroke="#9ccce7"/><path d="M356,555L207,653L322,671Z" fill="#8bc5db" stroke="#8bc5db"/><path d="M356,555L322,671L526,691Z" fill="#81c0d6" stroke="#81c0d6"/><path d="M356,555L526,691L541,565Z" fill="#86c1dc" stroke="#86c1dc"/><path d="M541,565L526,691L625,718Z" fill="#72bad0" stroke="#72bad0"/><path d="M541,565L625,718L631,477Z" fill="#81bfdd" stroke="#81bfdd"/><path d="M631,477L625,718L869,496Z" fill="#7ebddf" stroke="#7ebddf"/><path d="M869,496L625,718L856,730Z" fill="#61b4ce" stroke="#61b4ce"/><path d="M869,496L856,730L972,528Z" fill="#66b6d7" stroke="#66b6d7"/><path d="M972,528L856,730L1003,696Z" fill="#50aeca" stroke="#50aeca"/><path d="M972,528L1003,696L1113,664Z" fill="#4dadc8" stroke="#4dadc8"/><path d="M972,528L1113,664L1088,505Z" fill="#59b1d2" stroke="#59b1d2"/><path d="M1088,505L1113,664L1291,500Z" fill="#4faecb" stroke="#4faecb"/><path d="M1291,500L1113,664L1241,709Z" fill="#38a6ba" stroke="#38a6ba"/><path d="M1291,500L1241,709L1402,578Z" fill="#36a4b6" stroke="#36a4b6"/><path d="M1402,578L1241,709L1426,645Z" fill="#289ea9" stroke="#289ea9"/><path d="M1402,578L1426,645L1596,511Z" fill="#349da9" stroke="#349da9"/><path d="M1596,511L1426,645L1606,658Z" fill="#2a969d" stroke="#2a969d"/><path d="M1596,511L1606,658L1665,630Z" fill="#299297" stroke="#299297"/><path d="M1596,511L1665,630L1762,501Z" fill="#36949b" stroke="#36949b"/><path d="M1762,501L1665,630L1866,677Z" fill="#288b88" stroke="#288b88"/><path d="M1762,501L1866,677L1893,473Z" fill="#358a8a" stroke="#358a8a"/><path d="M1893,473L1866,677L2041,508Z" fill="#358580" stroke="#358580"/><path d="M2041,508L1866,677L1994,703Z" fill="#217d6f" stroke="#217d6f"/><path d="M2041,508L1994,703L2012,819Z" fill="#157661" stroke="#157661"/><path d="M2041,508L2012,819L2055,1017Z" fill="#126848" stroke="#126848"/><path d="M-115,707L-116,787L113,675Z" fill="#8fccd0" stroke="#8fccd0"/><path d="M113,675L-116,787L65,874Z" fill="#8cc2c3" stroke="#8cc2c3"/><path d="M113,675L65,874L218,834Z" fill="#85bbbc" stroke="#85bbbc"/><path d="M113,675L218,834L207,653Z" fill="#82c1cb" stroke="#82c1cb"/><path d="M207,653L218,834L322,671Z" fill="#7ebfca" stroke="#7ebfca"/><path d="M322,671L218,834L400,818Z" fill="#7ab5bc" stroke="#7ab5bc"/><path d="M322,671L400,818L526,691Z" fill="#73b7c5" stroke="#73b7c5"/><path d="M526,691L400,818L519,803Z" fill="#6fb0b9" stroke="#6fb0b9"/><path d="M526,691L519,803L625,718Z" fill="#6ab1c0" stroke="#6ab1c0"/><path d="M625,718L519,803L685,871Z" fill="#67a8b1" stroke="#67a8b1"/><path d="M625,718L685,871L856,730Z" fill="#5da8b5" stroke="#5da8b5"/><path d="M856,730L685,871L868,798Z" fill="#55a2ad" stroke="#55a2ad"/><path d="M856,730L868,798L969,796Z" fill="#4ba2b1" stroke="#4ba2b1"/><path d="M856,730L969,796L1003,696Z" fill="#47a5b8" stroke="#47a5b8"/><path d="M1003,696L969,796L1105,792Z" fill="#3e9fad" stroke="#3e9fad"/><path d="M1003,696L1105,792L1113,664Z" fill="#38a3b3" stroke="#38a3b3"/><path d="M1113,664L1105,792L1241,709Z" fill="#2f9fab" stroke="#2f9fab"/><path d="M1241,709L1105,792L1315,859Z" fill="#279597" stroke="#279597"/><path d="M1241,709L1315,859L1459,801Z" fill="#1d8e8c" stroke="#1d8e8c"/><path d="M1241,709L1459,801L1426,645Z" fill="#1c9598" stroke="#1c9598"/><path d="M1426,645L1459,801L1516,782Z" fill="#188d89" stroke="#188d89"/><path d="M1426,645L1516,782L1606,658Z" fill="#16908f" stroke="#16908f"/><path d="M1606,658L1516,782L1678,782Z" fill="#12867c" stroke="#12867c"/><path d="M1606,658L1678,782L1665,630Z" fill="#128983" stroke="#128983"/><path d="M1665,630L1678,782L1866,677Z" fill="#128479" stroke="#128479"/><path d="M1866,677L1678,782L1851,831Z" fill="#127863" stroke="#127863"/><path d="M1866,677L1851,831L1994,703Z" fill="#12755f" stroke="#12755f"/><path d="M1994,703L1851,831L2012,819Z" fill="#126c50" stroke="#126c50"/><path d="M-116,787L-109,1174L-78,967Z" fill="#91ae9a" stroke="#91ae9a"/><path d="M-116,787L-78,967L65,874Z" fill="#8fb8af" stroke="#8fb8af"/><path d="M65,874L-78,967L112,976Z" fill="#8bad9f" stroke="#8bad9f"/><path d="M65,874L112,976L218,834Z" fill="#85aea6" stroke="#85aea6"/><path d="M218,834L112,976L253,944Z" fill="#81a89f" stroke="#81a89f"/><path d="M218,834L253,944L400,818Z" fill="#7caaa8" stroke="#7caaa8"/><path d="M400,818L253,944L337,1030Z" fill="#79a099" stroke="#79a099"/><path d="M400,818L337,1030L552,991Z" fill="#739b94" stroke="#739b94"/><path d="M400,818L552,991L519,803Z" fill="#6fa3a3" stroke="#6fa3a3"/><path d="M519,803L552,991L685,871Z" fill="#689d9e" stroke="#689d9e"/><path d="M685,871L552,991L633,999Z" fill="#66948f" stroke="#66948f"/><path d="M685,871L633,999L820,979Z" fill="#5e928e" stroke="#5e928e"/><path d="M685,871L820,979L868,798Z" fill="#56989b" stroke="#56989b"/><path d="M868,798L820,979L989,984Z" fill="#4c9091" stroke="#4c9091"/><path d="M868,798L989,984L969,796Z" fill="#47969e" stroke="#47969e"/><path d="M969,796L989,984L1105,792Z" fill="#3e9399" stroke="#3e9399"/><path d="M1105,792L989,984L1125,1001Z" fill="#388985" stroke="#388985"/><path d="M1105,792L1125,1001L1315,859Z" fill="#2b8a85" stroke="#2b8a85"/><path d="M1315,859L1125,1001L1314,1015Z" fill="#237e6f" stroke="#237e6f"/><path d="M1315,859L1314,1015L1469,928Z" fill="#1c7b69" stroke="#1c7b69"/><path d="M1315,859L1469,928L1459,801Z" fill="#1a8174" stroke="#1a8174"/><path d="M1459,801L1469,928L1516,782Z" fill="#178073" stroke="#178073"/><path d="M1516,782L1469,928L1584,979Z" fill="#157762" stroke="#157762"/><path d="M1516,782L1584,979L1678,782Z" fill="#137965" stroke="#137965"/><path d="M1678,782L1584,979L1705,947Z" fill="#126f53" stroke="#126f53"/><path d="M1678,782L1705,947L1851,831Z" fill="#127055" stroke="#127055"/><path d="M1851,831L1705,947L1894,1023Z" fill="#12623c" stroke="#12623c"/><path d="M1851,831L1894,1023L2012,819Z" fill="#12613b" stroke="#12613b"/><path d="M2012,819L1894,1023L2055,1017Z" fill="#125527" stroke="#125527"/><path d="M-78,967L-109,1174L74,1180Z" fill="#8f9c7d" stroke="#8f9c7d"/><path d="M-78,967L74,1180L112,976Z" fill="#8ba088" stroke="#8ba088"/><path d="M112,976L74,1180L193,1087Z" fill="#85977d" stroke="#85977d"/><path d="M112,976L193,1087L253,944Z" fill="#829e8d" stroke="#829e8d"/><path d="M253,944L193,1087L337,1030Z" fill="#7d9887" stroke="#7d9887"/><path d="M337,1030L193,1087L358,1111Z" fill="#7b9079" stroke="#7b9079"/><path d="M337,1030L358,1111L552,991Z" fill="#73907f" stroke="#73907f"/><path d="M552,991L358,1111L507,1154Z" fill="#708874" stroke="#708874"/><path d="M552,991L507,1154L627,1146Z" fill="#6a8470" stroke="#6a8470"/><path d="M552,991L627,1146L633,999Z" fill="#67897b" stroke="#67897b"/><path d="M633,999L627,1146L827,1078Z" fill="#5f8373" stroke="#5f8373"/><path d="M633,999L827,1078L820,979Z" fill="#59887e" stroke="#59887e"/><path d="M820,979L827,1078L989,984Z" fill="#4d857d" stroke="#4d857d"/><path d="M989,984L827,1078L946,1143Z" fill="#497c70" stroke="#497c70"/><path d="M989,984L946,1143L1125,1001Z" fill="#3e7c70" stroke="#3e7c70"/><path d="M1125,1001L946,1143L1135,1163Z" fill="#39735f" stroke="#39735f"/><path d="M1125,1001L1135,1163L1314,1015Z" fill="#2a745e" stroke="#2a745e"/><path d="M1314,1015L1135,1163L1333,1074Z" fill="#226e52" stroke="#226e52"/><path d="M1314,1015L1333,1074L1469,928Z" fill="#1c7259" stroke="#1c7259"/><path d="M1469,928L1333,1074L1430,1180Z" fill="#1a6849" stroke="#1a6849"/><path d="M1469,928L1430,1180L1561,1135Z" fill="#17623d" stroke="#17623d"/><path d="M1469,928L1561,1135L1584,979Z" fill="#156746" stroke="#156746"/><path d="M1584,979L1561,1135L1705,947Z" fill="#12623d" stroke="#12623d"/><path d="M1705,947L1561,1135L1777,1157Z" fill="#12572a" stroke="#12572a"/><path d="M1705,947L1777,1157L1894,1023Z" fill="#125527" stroke="#125527"/><path d="M1894,1023L1777,1157L1874,1113Z" fill="#124b15" stroke="#124b15"/><path d="M1894,1023L1874,1113L2063,1110Z" fill="#12480f" stroke="#12480f"/><path d="M1894,1023L2063,1110L2055,1017Z" fill="#124910" stroke="#124910"/><path d="M74,1180L1430,1180L1135,1163Z" fill="#4d7169" stroke="#4d7169"/><path d="M74,1180L1135,1163L507,1154Z" fill="#697b6f" stroke="#697b6f"/><path d="M74,1180L507,1154L358,1111Z" fill="#7a8673" stroke="#7a8673"/><path d="M74,1180L358,1111L193,1087Z" fill="#808d76" stroke="#808d76"/><path d="M507,1154L1135,1163L627,1146Z" fill="#59776c" stroke="#59776c"/><path d="M627,1146L1135,1163L946,1143Z" fill="#4b7369" stroke="#4b7369"/><path d="M627,1146L946,1143L827,1078Z" fill="#557a6b" stroke="#557a6b"/><path d="M1135,1163L1430,1180L1333,1074Z" fill="#1f654b" stroke="#1f654b"/><path d="M1430,1180L1777,1157L1561,1135Z" fill="#13522e" stroke="#13522e"/><path d="M1777,1157L2063,1110L1874,1113Z" fill="#12450e" stroke="#12450e"/></g></svg>